<svg width="256" height="256" viewBox="0 0 256 256" fill="none" xmlns="http://www.w3.org/2000/svg">
<path d="M246 0C251.523 0 256 4.47715 256 10V246C256 251.523 251.523 256 246 256H10C4.47715 256 0 251.523 0 246V10C0 4.47715 4.47715 0 10 0H246ZM205.648 32C205.648 32 173.323 32.0376 152.886 49.7441C147.438 48.5876 141.884 48.003 136.314 48C93.648 48.0001 72.3151 69.3335 61.6484 112C59.2805 121.483 57.0349 119.462 45.6484 128C39.2751 132.779 34.3574 144 50.9814 144C63.8915 144 73.3295 147.31 87.7002 148.719C87.5346 148.757 87.4478 148.778 87.4453 148.778C96.2686 149.269 100.766 150.597 119.814 147.104C121.701 152.605 124.845 157.957 129.664 161.168C142.219 169.536 142.288 171.285 145.664 161.168C147.947 154.322 147.381 147.715 145.372 141.564C145.885 141.442 146.404 141.321 146.928 141.194C163.731 137.148 171.51 166.82 157.791 181.532C143.382 193.875 128.52 180.513 114.976 176C98.9762 170.667 109.642 181.334 114.976 186.667C120.309 192 121.973 208 114.976 218.667C107.979 229.333 130.976 218.667 141.643 202.667C141.701 202.576 141.76 202.517 141.813 202.427C183.424 200 216.314 170.325 216.314 128C216.314 107.104 208.234 88.1384 195.114 73.8877C196.907 62.045 202.472 51.0965 210.981 42.667C214.736 38.9124 212.315 32.0003 205.648 32Z" fill="#041C33"/>
<path d="M195.115 73.888C196.908 62.0452 202.472 51.0963 210.981 42.6667C214.736 38.912 212.315 32 205.648 32C205.648 32 173.323 32.0373 152.885 49.744C147.438 48.5875 141.884 48.003 136.315 48C93.648 48 72.3146 69.3333 61.648 112C59.28 121.483 57.0346 119.461 45.648 128C39.2746 132.779 34.3573 144 50.9813 144C66.9813 144 77.648 149.088 98.9813 149.333C118.336 149.557 149.669 132.112 158.112 142.443C169.904 156.875 165.557 171.445 161.296 177.995C145.808 196.107 129.621 180.88 114.976 176C98.976 170.667 109.643 181.333 114.976 186.667C120.309 192 121.973 208 114.976 218.667C107.979 229.333 130.976 218.667 141.643 202.667C141.701 202.576 141.76 202.517 141.813 202.427C183.424 200 216.315 170.325 216.315 128C216.315 107.104 208.235 88.1387 195.115 73.888Z" fill="#9DD2F3"/>
<path d="M101.957 117.333C107.848 117.333 112.624 112.558 112.624 106.667C112.624 100.776 107.848 96 101.957 96C96.0664 96 91.2908 100.776 91.2908 106.667C91.2908 112.558 96.0664 117.333 101.957 117.333Z" fill="#041C33"/>
<path d="M87.4453 148.779C87.4453 148.779 108.779 144.107 125.669 134.443C150.336 120.331 164.389 120.608 173.056 130.053C181.723 139.499 183.669 165.221 157.669 181.664C171.557 166.997 163.781 137.136 146.928 141.195C103.445 151.669 99.4453 149.445 87.4453 148.779Z" fill="#9DD2F3"/>
<path d="M135.376 126.635L119.792 133.488C119.132 133.647 118.549 134.035 118.147 134.583C117.745 135.13 117.549 135.802 117.595 136.48C118.245 144.501 121.627 155.813 129.664 161.168C142.219 169.536 142.288 171.285 145.664 161.168C149.76 148.885 144.693 137.371 138.555 127.888C138.222 127.373 137.737 126.976 137.167 126.751C136.596 126.526 135.97 126.485 135.376 126.635Z" fill="#9DD2F3"/>
</svg>
